<svg xmlns="http://www.w3.org/2000/svg" xmlns:xlink="http://www.w3.org/1999/xlink" width="128" zoomAndPan="magnify" viewBox="0 0 96 95.999999" height="128" preserveAspectRatio="xMidYMid meet" version="1.0"><path fill="#ffffff" d="M 46.941406 5.894531 C 46.042969 6.347656 45.644531 7.28125 45.933594 8.238281 C 46.019531 8.523438 46.089844 9.210938 46.09375 9.769531 L 46.09375 10.789062 L 39.078125 10.855469 C 31.40625 10.925781 31.515625 10.917969 29.648438 11.636719 C 28.410156 12.117188 27.277344 12.890625 26.226562 13.976562 C 25.152344 15.085938 24.496094 16.058594 24.011719 17.242188 C 23.226562 19.171875 23.238281 19.003906 23.238281 28.5 C 23.238281 36.449219 23.25 37.09375 23.445312 37.777344 C 24.097656 40.089844 24.921875 41.480469 26.621094 43.160156 C 27.636719 44.164062 27.917969 44.371094 28.957031 44.882812 C 31.109375 45.941406 31.175781 45.953125 36.328125 46.011719 L 40.820312 46.058594 L 40.855469 49.097656 C 40.886719 51.957031 40.902344 52.152344 41.125 52.445312 C 41.25 52.617188 41.496094 52.863281 41.667969 52.992188 C 41.976562 53.21875 42.101562 53.222656 47.734375 53.222656 C 53.398438 53.222656 53.496094 53.21875 53.808594 52.988281 C 53.984375 52.859375 54.246094 52.582031 54.382812 52.375 C 54.632812 52.011719 54.640625 51.925781 54.640625 49.027344 L 54.640625 46.054688 L 59.082031 46.011719 C 63.183594 45.972656 63.589844 45.949219 64.386719 45.726562 C 66.355469 45.183594 67.675781 44.441406 69.03125 43.121094 C 70.515625 41.683594 71.5 39.964844 72.019531 37.917969 L 72.292969 36.84375 L 72.292969 28.28125 C 72.292969 18.765625 72.320312 19.171875 71.507812 17.203125 C 70.5 14.761719 68.230469 12.539062 65.71875 11.535156 C 64.085938 10.882812 63.558594 10.847656 56.167969 10.847656 L 49.464844 10.847656 L 49.390625 10.320312 C 49.277344 9.476562 49.308594 8.867188 49.488281 8.429688 C 49.820312 7.636719 49.671875 6.863281 49.0625 6.234375 C 48.46875 5.617188 47.726562 5.496094 46.941406 5.894531 M 32.15625 14.359375 C 29.6875 14.851562 27.398438 17.070312 26.785156 19.558594 C 26.5625 20.464844 26.5625 36.1875 26.785156 37.097656 C 27.429688 39.734375 29.667969 41.953125 32.210938 42.480469 C 32.929688 42.628906 35.027344 42.644531 48.167969 42.617188 C 62.476562 42.585938 63.328125 42.574219 63.917969 42.378906 C 65.980469 41.691406 67.71875 39.984375 68.558594 37.828125 C 68.800781 37.214844 68.828125 36.917969 68.886719 34.441406 C 68.925781 32.945312 68.925781 29 68.894531 25.671875 L 68.835938 19.617188 L 68.53125 18.855469 C 67.75 16.886719 66.027344 15.195312 64.144531 14.550781 L 63.410156 14.296875 L 48.019531 14.28125 C 39.554688 14.273438 32.414062 14.304688 32.15625 14.359375 M 31.300781 16.789062 C 30.28125 17.164062 29.453125 18.023438 29.085938 19.09375 C 28.875 19.699219 28.90625 23.21875 29.125 23.636719 C 29.472656 24.308594 30.429688 24.511719 31.113281 24.054688 C 31.769531 23.617188 31.894531 23.214844 31.894531 21.53125 C 31.894531 19.511719 31.800781 19.589844 34.269531 19.539062 C 36.316406 19.5 36.648438 19.40625 37.027344 18.761719 C 37.425781 18.089844 37.109375 17.148438 36.375 16.800781 C 35.859375 16.554688 31.957031 16.546875 31.300781 16.789062 M 17.140625 20.644531 C 15.203125 21.113281 13.207031 22.816406 12.363281 24.71875 C 11.722656 26.167969 11.753906 25.027344 11.753906 47.175781 C 11.75 69.972656 11.683594 68.128906 12.570312 69.847656 C 13.1875 71.050781 14.519531 72.40625 15.65625 72.992188 C 17.339844 73.863281 16.699219 73.808594 26.308594 73.847656 L 34.921875 73.886719 L 34.824219 74.304688 C 34.773438 74.535156 34.371094 76.046875 33.933594 77.667969 C 33.496094 79.285156 32.953125 81.300781 32.726562 82.148438 L 32.316406 83.691406 L 31.515625 83.757812 C 30.410156 83.851562 29.285156 84.410156 28.515625 85.25 C 27.125 86.773438 27.046875 88.9375 28.355469 89.832031 L 28.765625 90.113281 L 47.644531 90.144531 C 66.480469 90.171875 66.527344 90.171875 66.980469 89.941406 C 67.816406 89.515625 68.21875 88.507812 67.996094 87.398438 C 67.726562 86.058594 66.835938 84.851562 65.671875 84.257812 C 65.09375 83.960938 64.207031 83.722656 63.667969 83.722656 C 63.269531 83.722656 63.242188 83.695312 63.125 83.238281 C 63.035156 82.90625 62.941406 82.578125 62.839844 82.25 C 62.476562 81.089844 60.636719 74.15625 60.636719 73.945312 C 60.636719 73.910156 64.492188 73.871094 69.207031 73.851562 L 77.78125 73.820312 L 78.683594 73.511719 C 80.480469 72.898438 82.089844 71.476562 82.929688 69.757812 C 83.78125 68.015625 83.722656 69.777344 83.722656 47.164062 C 83.722656 27.304688 83.714844 26.816406 83.496094 25.964844 C 82.835938 23.382812 80.703125 21.210938 78.261719 20.636719 C 76.902344 20.316406 76.109375 20.460938 75.539062 21.136719 C 74.984375 21.796875 75.203125 23.140625 75.925781 23.527344 C 76.066406 23.601562 76.535156 23.738281 76.972656 23.828125 C 77.410156 23.917969 77.96875 24.09375 78.214844 24.21875 C 78.796875 24.515625 79.671875 25.398438 80.003906 26.023438 L 80.269531 26.519531 L 80.269531 67.59375 L 79.929688 68.207031 C 79.269531 69.402344 78.300781 70.128906 77.054688 70.367188 C 76.652344 70.441406 66.660156 70.480469 47.636719 70.480469 C 24.070312 70.476562 18.707031 70.449219 18.183594 70.328125 C 16.90625 70.027344 16.0625 69.3125 15.441406 67.996094 L 15.089844 67.257812 L 15.089844 47.113281 C 15.089844 24.207031 14.992188 26.339844 16.074219 25.15625 C 16.808594 24.351562 17.410156 24.007812 18.441406 23.792969 C 19.839844 23.5 20.238281 23.117188 20.238281 22.050781 C 20.238281 21.4375 19.914062 20.933594 19.324219 20.628906 C 18.929688 20.425781 18.019531 20.433594 17.140625 20.644531 M 36.195312 23.007812 C 34.457031 23.574219 33.234375 25.699219 33.589844 27.53125 C 33.757812 28.398438 34.097656 28.988281 34.832031 29.671875 C 35.691406 30.476562 36.265625 30.699219 37.496094 30.703125 C 38.425781 30.707031 38.585938 30.671875 39.273438 30.332031 C 40.191406 29.882812 40.960938 29.054688 41.300781 28.160156 C 41.488281 27.65625 41.523438 27.355469 41.488281 26.574219 C 41.429688 25.433594 41.1875 24.871094 40.398438 24.046875 C 39.582031 23.199219 38.941406 22.917969 37.722656 22.878906 C 37.050781 22.855469 36.53125 22.898438 36.195312 23.007812 M 56.480469 23.082031 C 55.675781 23.390625 54.726562 24.277344 54.335938 25.082031 C 54.070312 25.636719 54.023438 25.871094 54.019531 26.746094 C 54.015625 27.636719 54.054688 27.84375 54.332031 28.40625 C 54.75 29.257812 55.441406 29.929688 56.335938 30.355469 C 56.972656 30.65625 57.195312 30.707031 57.980469 30.703125 C 58.78125 30.703125 58.984375 30.65625 59.644531 30.332031 C 62.222656 29.0625 62.691406 25.808594 60.574219 23.875 C 60.207031 23.539062 59.703125 23.214844 59.332031 23.074219 C 58.503906 22.765625 57.292969 22.769531 56.476562 23.082031 M 42.6875 34.996094 C 41.539062 35.5 41.585938 37.238281 42.761719 37.710938 C 43.148438 37.867188 43.847656 37.890625 47.652344 37.890625 C 50.519531 37.890625 52.25 37.847656 52.539062 37.765625 C 53.09375 37.613281 53.589844 37.097656 53.6875 36.574219 C 53.785156 36.046875 53.46875 35.351562 52.996094 35.058594 C 52.648438 34.847656 52.425781 34.835938 47.835938 34.839844 C 44.0625 34.84375 42.964844 34.878906 42.6875 34.996094 M 44.339844 49.292969 L 44.339844 50 L 47.785156 50 C 49.679688 50 51.253906 49.960938 51.28125 49.914062 C 51.308594 49.867188 51.304688 49.550781 51.273438 49.207031 L 51.222656 48.585938 L 44.339844 48.585938 Z M 35.910156 49.707031 C 35.390625 49.9375 33.15625 51.902344 32.269531 52.910156 C 30.402344 55.027344 29.332031 57.132812 28.605469 60.113281 C 28.300781 61.371094 28.265625 61.714844 28.242188 63.589844 C 28.214844 65.917969 28.296875 66.28125 28.992188 66.777344 L 29.347656 67.03125 L 47.398438 67.0625 C 57.324219 67.078125 65.613281 67.066406 65.816406 67.027344 C 66.328125 66.9375 66.921875 66.382812 67.152344 65.773438 C 67.320312 65.339844 67.335938 65 67.28125 63.433594 C 67.121094 58.921875 65.667969 55.34375 62.816406 52.445312 C 61.855469 51.46875 59.921875 49.90625 59.410156 49.695312 C 58.390625 49.269531 57.242188 50.066406 57.242188 51.195312 C 57.242188 51.792969 57.558594 52.230469 58.726562 53.234375 C 61.972656 56.035156 63.429688 58.617188 63.800781 62.234375 C 63.863281 62.863281 63.917969 63.472656 63.917969 63.589844 C 63.917969 63.800781 63.539062 63.804688 47.75 63.804688 L 31.585938 63.804688 L 31.628906 62.984375 C 31.730469 61.097656 32.152344 59.4375 32.9375 57.863281 C 33.71875 56.300781 34.75 55.039062 36.625 53.367188 C 37.328125 52.742188 37.976562 52.085938 38.066406 51.910156 C 38.753906 50.585938 37.292969 49.09375 35.910156 49.707031 M 24.59375 53.894531 C 24.410156 53.980469 22.867188 55.445312 21.171875 57.148438 L 18.089844 60.25 L 18.089844 61.464844 L 20.765625 64.160156 C 22.242188 65.640625 23.617188 66.933594 23.828125 67.035156 C 24.238281 67.230469 24.6875 67.183594 25.25 66.898438 C 25.914062 66.558594 26.214844 65.535156 25.847656 64.847656 C 25.757812 64.679688 24.867188 63.726562 23.867188 62.730469 C 22.867188 61.734375 22.050781 60.894531 22.050781 60.859375 C 22.050781 60.828125 23.144531 59.707031 24.480469 58.367188 C 26.835938 56.011719 26.914062 55.921875 26.914062 55.484375 C 26.914062 54.839844 26.582031 54.292969 26.007812 53.992188 C 25.457031 53.699219 25.085938 53.675781 24.59375 53.894531 M 69.832031 53.847656 C 68.988281 54.039062 68.480469 54.75 68.59375 55.578125 C 68.648438 55.992188 68.871094 56.253906 71.0625 58.445312 L 73.472656 60.855469 L 71.535156 62.816406 C 69.464844 64.90625 69.339844 65.101562 69.511719 66.003906 C 69.597656 66.460938 70.1875 67.027344 70.699219 67.140625 C 71.484375 67.3125 71.648438 67.191406 74.480469 64.386719 C 75.960938 62.914062 77.253906 61.566406 77.347656 61.386719 C 77.457031 61.171875 77.492188 60.921875 77.445312 60.652344 C 77.386719 60.296875 76.941406 59.8125 74.296875 57.207031 C 72.601562 55.539062 71.113281 54.105469 70.992188 54.023438 C 70.671875 53.8125 70.257812 53.75 69.832031 53.847656 M 37.496094 55.394531 C 37.105469 55.472656 36.753906 55.820312 36.597656 56.273438 C 36.40625 56.839844 36.53125 57.308594 36.984375 57.722656 L 37.328125 58.035156 L 45.363281 58.035156 L 45.765625 57.664062 C 46.285156 57.191406 46.386719 56.570312 46.042969 56.019531 C 45.621094 55.34375 45.429688 55.316406 41.375 55.332031 C 39.367188 55.339844 37.621094 55.371094 37.496094 55.394531 M 50.507812 55.394531 C 49.582031 55.59375 49.160156 56.5 49.601562 57.351562 C 49.960938 58.042969 49.890625 58.035156 54.332031 58.035156 C 58.78125 58.035156 58.878906 58.019531 59.21875 57.359375 C 59.558594 56.699219 59.332031 55.9375 58.679688 55.539062 C 58.335938 55.332031 58.097656 55.320312 54.527344 55.332031 C 52.441406 55.339844 50.632812 55.367188 50.507812 55.394531 M 37.53125 59.472656 C 36.65625 59.566406 36.164062 60.601562 36.59375 61.433594 C 36.933594 62.089844 37.046875 62.105469 41.332031 62.105469 C 44.074219 62.105469 45.324219 62.066406 45.527344 61.976562 C 46.328125 61.609375 46.480469 60.460938 45.820312 59.796875 L 45.46875 59.449219 L 41.707031 59.4375 C 39.640625 59.429688 37.757812 59.445312 37.53125 59.472656 M 50.734375 59.46875 C 49.824219 59.589844 49.433594 60.007812 49.433594 60.867188 C 49.433594 61.25 49.503906 61.410156 49.816406 61.722656 L 50.203125 62.105469 L 52.710938 62.105469 C 55.429688 62.105469 55.664062 62.0625 56.046875 61.476562 C 56.484375 60.8125 56.214844 59.992188 55.421875 59.589844 C 55.09375 59.421875 54.738281 59.394531 53.054688 59.410156 C 51.964844 59.417969 50.921875 59.445312 50.734375 59.46875 M 41.328125 76.035156 C 40.625 76.101562 39.84375 76.460938 39.457031 76.890625 C 39.074219 77.3125 38.652344 78.339844 38.378906 79.515625 C 38.222656 80.179688 38.050781 80.808594 37.992188 80.917969 C 37.9375 81.027344 37.890625 81.140625 37.890625 81.171875 C 37.890625 81.203125 42.339844 81.230469 47.773438 81.230469 L 57.660156 81.230469 L 57.277344 79.789062 C 56.8125 78.039062 56.496094 77.324219 55.949219 76.78125 C 55.152344 75.980469 55.40625 76.007812 48.359375 75.988281 C 44.875 75.976562 41.710938 76 41.328125 76.035156 M 35.71875 85.054688 C 35.238281 85.421875 34.761719 85.789062 34.285156 86.15625 L 33.566406 86.71875 L 47.570312 86.75 C 55.277344 86.765625 61.609375 86.746094 61.644531 86.707031 C 61.679688 86.667969 61.609375 86.570312 61.484375 86.484375 C 61.359375 86.402344 60.734375 85.921875 60.089844 85.421875 L 58.921875 84.511719 L 36.433594 84.511719 Z M 35.71875 85.054688 " fill-opacity="1" fill-rule="evenodd"/></svg>