<svg xmlns="http://www.w3.org/2000/svg" xmlns:xlink="http://www.w3.org/1999/xlink" width="128" zoomAndPan="magnify" viewBox="0 0 96 95.999999" height="128" preserveAspectRatio="xMidYMid meet" version="1.0"><path fill="#545454" d="M 78.453125 22.164062 C 78.96875 22.425781 79.433594 22.753906 79.867188 23.136719 C 79.90625 23.171875 79.949219 23.207031 79.988281 23.242188 C 80.980469 24.105469 81.65625 25.226562 82.097656 26.453125 C 82.296875 27.042969 82.335938 27.640625 82.355469 28.257812 L 82.359375 28.445312 C 82.382812 29.105469 82.382812 29.769531 82.382812 30.433594 C 82.382812 30.613281 82.382812 30.796875 82.382812 30.976562 C 82.382812 31.296875 82.382812 31.613281 82.382812 31.929688 C 82.382812 32.402344 82.382812 32.871094 82.382812 33.34375 C 82.382812 34.1875 82.382812 35.03125 82.382812 35.871094 C 82.382812 36.609375 82.382812 37.347656 82.382812 38.085938 L 82.382812 38.832031 C 82.382812 40.699219 82.382812 42.566406 82.382812 44.433594 C 82.382812 46.085938 82.382812 47.742188 82.382812 49.398438 C 82.382812 51.507812 82.382812 53.621094 82.382812 55.730469 C 82.382812 56.46875 82.382812 57.207031 82.382812 57.941406 C 82.382812 58.78125 82.382812 59.621094 82.382812 60.457031 C 82.382812 60.925781 82.382812 61.394531 82.382812 61.863281 C 82.382812 62.175781 82.382812 62.492188 82.382812 62.804688 C 82.382812 62.984375 82.382812 63.160156 82.382812 63.339844 C 82.382812 64.046875 82.378906 64.753906 82.355469 65.460938 L 82.347656 65.640625 C 82.296875 67.136719 82.089844 68.285156 81.3125 69.582031 C 81.03125 70.035156 80.6875 70.433594 80.316406 70.820312 C 80.261719 70.875 80.207031 70.933594 80.15625 70.992188 C 79.371094 71.828125 78.277344 72.355469 77.210938 72.71875 L 77.125 72.753906 C 76.789062 72.886719 76.464844 72.886719 76.101562 72.890625 L 75.898438 72.890625 C 75.710938 72.894531 75.523438 72.894531 75.335938 72.894531 C 75.171875 72.898438 75.011719 72.898438 74.847656 72.898438 C 74.300781 72.90625 73.753906 72.910156 73.207031 72.914062 L 72.757812 72.914062 C 71.003906 72.925781 69.253906 72.933594 67.5 72.9375 C 66.660156 72.941406 65.820312 72.945312 64.980469 72.949219 C 63.390625 72.957031 61.804688 72.96875 60.214844 73.007812 L 60.261719 73.175781 C 60.386719 73.625 60.507812 74.074219 60.621094 74.523438 L 60.734375 74.976562 C 61.148438 76.628906 61.589844 78.273438 62.050781 79.914062 L 62.089844 80.058594 C 62.171875 80.34375 62.25 80.625 62.332031 80.910156 L 62.359375 81.007812 C 62.527344 81.660156 62.527344 81.660156 62.773438 82.28125 C 62.863281 82.300781 62.863281 82.300781 62.976562 82.308594 C 63.039062 82.316406 63.039062 82.316406 63.105469 82.324219 L 63.246094 82.335938 C 64.054688 82.433594 64.890625 82.671875 65.558594 83.160156 C 65.9375 83.449219 66.257812 83.773438 66.539062 84.164062 L 66.628906 84.285156 C 66.988281 84.800781 67.265625 85.480469 67.324219 86.113281 C 67.347656 86.609375 67.347656 87.089844 67.121094 87.542969 C 66.945312 87.847656 66.738281 88.117188 66.445312 88.316406 C 65.652344 88.714844 64.53125 88.5625 63.671875 88.5625 C 63.492188 88.5625 63.3125 88.5625 63.132812 88.5625 C 62.816406 88.5625 62.5 88.5625 62.1875 88.5625 C 61.71875 88.5625 61.25 88.5625 60.785156 88.5625 C 59.949219 88.5625 59.113281 88.5625 58.277344 88.5625 C 57.542969 88.5625 56.8125 88.5625 56.082031 88.5625 L 55.34375 88.5625 C 53.496094 88.5625 51.648438 88.5625 49.800781 88.5625 C 48.160156 88.5625 46.519531 88.5625 44.878906 88.5625 C 42.835938 88.5625 40.796875 88.5625 38.753906 88.5625 L 38.609375 88.5625 C 37.878906 88.5625 37.148438 88.5625 36.414062 88.5625 C 35.585938 88.5625 34.753906 88.5625 33.921875 88.5625 C 33.457031 88.5625 32.992188 88.5625 32.527344 88.5625 C 32.21875 88.5625 31.90625 88.5625 31.597656 88.5625 C 31.417969 88.5625 31.242188 88.5625 31.066406 88.5625 C 30.875 88.5625 30.683594 88.5625 30.492188 88.5625 L 30.328125 88.5625 C 29.5625 88.5625 29.5625 88.5625 29.3125 88.433594 C 28.871094 88.09375 28.566406 87.769531 28.347656 87.253906 C 28.191406 86.835938 28.183594 86.382812 28.238281 85.945312 C 28.359375 85.238281 28.648438 84.582031 29.097656 84.019531 C 29.167969 83.9375 29.242188 83.855469 29.316406 83.777344 L 29.402344 83.675781 C 29.917969 83.113281 30.628906 82.761719 31.34375 82.519531 C 31.863281 82.363281 32.394531 82.320312 32.9375 82.328125 L 32.953125 82.246094 C 33.015625 81.894531 33.109375 81.554688 33.203125 81.214844 C 33.230469 81.121094 33.253906 81.03125 33.28125 80.9375 L 33.359375 80.644531 C 33.464844 80.273438 33.566406 79.898438 33.667969 79.523438 C 33.828125 78.945312 33.984375 78.367188 34.132812 77.785156 C 34.261719 77.285156 34.394531 76.785156 34.53125 76.289062 L 34.566406 76.152344 C 34.628906 75.933594 34.6875 75.71875 34.746094 75.503906 C 34.902344 74.9375 35.046875 74.367188 35.191406 73.796875 L 35.25 73.550781 C 35.300781 73.355469 35.347656 73.15625 35.398438 72.960938 L 35.226562 72.960938 C 33.6875 72.957031 32.144531 72.949219 30.605469 72.945312 L 30.503906 72.941406 C 30.027344 72.941406 29.554688 72.9375 29.078125 72.9375 C 23.765625 72.917969 23.765625 72.917969 21.722656 72.894531 C 21.617188 72.894531 21.507812 72.890625 21.398438 72.890625 C 18.230469 72.859375 18.230469 72.859375 16.804688 72.035156 C 16.289062 71.726562 15.824219 71.367188 15.410156 70.933594 L 15.167969 70.691406 L 15.085938 70.617188 C 14.390625 69.960938 13.78125 69.003906 13.484375 68.097656 C 12.894531 65.980469 13.183594 63.492188 13.183594 61.308594 C 13.183594 60.902344 13.183594 60.496094 13.183594 60.089844 C 13.183594 59.292969 13.183594 58.5 13.183594 57.703125 C 13.183594 57.003906 13.183594 56.308594 13.183594 55.613281 L 13.183594 54.90625 C 13.183594 53.140625 13.183594 51.375 13.183594 49.609375 C 13.183594 48.046875 13.183594 46.484375 13.183594 44.917969 C 13.183594 42.96875 13.183594 41.015625 13.183594 39.070312 L 13.183594 38.929688 C 13.183594 38.234375 13.183594 37.535156 13.183594 36.839844 C 13.183594 36.046875 13.183594 35.257812 13.183594 34.464844 C 13.183594 34.058594 13.183594 33.65625 13.183594 33.253906 C 13.179688 26.578125 13.179688 26.578125 13.964844 25.167969 C 14.082031 24.964844 14.210938 24.773438 14.347656 24.582031 L 14.40625 24.5 C 15.183594 23.429688 16.222656 22.5625 17.425781 22.011719 C 18.109375 21.734375 18.816406 21.582031 19.554688 21.578125 L 19.707031 21.574219 C 20.078125 21.574219 20.378906 21.625 20.703125 21.804688 C 20.976562 22.015625 21.148438 22.246094 21.300781 22.554688 C 21.367188 22.753906 21.359375 22.9375 21.359375 23.144531 L 21.363281 23.265625 C 21.367188 23.585938 21.304688 23.824219 21.148438 24.105469 C 20.929688 24.371094 20.648438 24.5 20.335938 24.632812 C 20.097656 24.707031 19.859375 24.765625 19.617188 24.820312 C 18.859375 25.011719 18.257812 25.25 17.679688 25.789062 L 17.585938 25.878906 C 17.480469 25.976562 17.375 26.074219 17.273438 26.175781 L 17.171875 26.269531 C 16.972656 26.464844 16.84375 26.648438 16.75 26.914062 C 16.433594 28.066406 16.515625 29.398438 16.496094 30.585938 L 16.492188 30.761719 C 16.464844 32.246094 16.460938 33.730469 16.460938 35.214844 C 16.460938 35.542969 16.457031 35.875 16.457031 36.203125 L 16.457031 36.332031 C 16.449219 39.429688 16.445312 42.523438 16.445312 45.621094 L 16.441406 47.148438 C 16.441406 48.796875 16.4375 50.441406 16.433594 52.089844 C 16.429688 53.789062 16.425781 55.488281 16.425781 57.1875 L 16.425781 58.050781 C 16.425781 58.804688 16.421875 59.5625 16.417969 60.320312 C 16.417969 61.082031 16.414062 61.84375 16.417969 62.601562 C 16.417969 63.054688 16.417969 63.503906 16.414062 63.957031 C 16.410156 64.257812 16.410156 64.558594 16.414062 64.859375 C 16.414062 65.03125 16.414062 65.203125 16.410156 65.375 C 16.402344 66.132812 16.457031 66.726562 16.828125 67.394531 C 17 67.683594 17.183594 67.964844 17.390625 68.230469 L 17.46875 68.339844 C 17.8125 68.769531 18.328125 69.070312 18.824219 69.28125 C 19.289062 69.453125 19.730469 69.496094 20.21875 69.511719 L 20.394531 69.515625 C 21.351562 69.546875 22.308594 69.550781 23.265625 69.558594 C 23.324219 69.5625 23.378906 69.5625 23.4375 69.5625 C 27.238281 69.59375 31.039062 69.589844 34.835938 69.589844 C 35.609375 69.589844 36.382812 69.589844 37.152344 69.589844 L 38.003906 69.589844 C 40.109375 69.589844 42.21875 69.589844 44.324219 69.589844 C 46.179688 69.585938 48.03125 69.585938 49.882812 69.589844 C 52.214844 69.589844 54.542969 69.589844 56.871094 69.589844 L 57.039062 69.589844 C 57.808594 69.589844 58.578125 69.589844 59.347656 69.589844 C 63.378906 69.589844 67.40625 69.589844 71.433594 69.5625 L 71.875 69.558594 C 72.285156 69.554688 72.695312 69.554688 73.105469 69.550781 C 73.222656 69.550781 73.34375 69.546875 73.464844 69.546875 C 74.097656 69.542969 74.726562 69.53125 75.359375 69.515625 L 75.535156 69.511719 C 76.195312 69.488281 76.738281 69.308594 77.296875 68.960938 C 77.921875 68.546875 78.316406 68.058594 78.691406 67.417969 C 78.730469 67.351562 78.773438 67.285156 78.816406 67.222656 C 78.921875 67.0625 78.988281 66.921875 79.019531 66.730469 C 79.027344 66.558594 79.027344 66.382812 79.027344 66.210938 C 79.027344 66.140625 79.027344 66.074219 79.027344 66.007812 C 79.03125 65.820312 79.03125 65.636719 79.027344 65.449219 C 79.027344 65.246094 79.027344 65.046875 79.03125 64.84375 C 79.03125 64.488281 79.03125 64.136719 79.03125 63.78125 C 79.03125 63.253906 79.03125 62.726562 79.03125 62.199219 C 79.035156 61.203125 79.035156 60.210938 79.035156 59.214844 C 79.035156 58.222656 79.035156 57.234375 79.035156 56.242188 L 79.035156 56.078125 C 79.039062 54.175781 79.039062 52.273438 79.039062 50.371094 L 79.039062 49.835938 C 79.039062 47.988281 79.039062 46.140625 79.042969 44.292969 C 79.046875 41.996094 79.046875 39.699219 79.046875 37.398438 L 79.046875 37.234375 C 79.046875 36.410156 79.046875 35.589844 79.050781 34.765625 C 79.050781 33.832031 79.050781 32.894531 79.050781 31.957031 C 79.050781 31.433594 79.050781 30.910156 79.050781 30.386719 C 79.054688 30.039062 79.054688 29.6875 79.050781 29.335938 C 79.050781 29.136719 79.050781 28.9375 79.050781 28.738281 C 79.085938 27.855469 79.085938 27.855469 78.851562 27.015625 C 78.761719 26.871094 78.667969 26.742188 78.5625 26.613281 C 78.515625 26.554688 78.472656 26.496094 78.425781 26.4375 C 78.027344 25.925781 77.527344 25.402344 76.921875 25.152344 C 76.625 25.046875 76.324219 24.964844 76.019531 24.886719 L 75.84375 24.84375 C 75.730469 24.816406 75.613281 24.789062 75.5 24.761719 C 75.179688 24.683594 74.910156 24.59375 74.652344 24.390625 C 74.445312 24.179688 74.308594 23.921875 74.230469 23.636719 C 74.15625 23.285156 74.15625 22.972656 74.25 22.625 C 74.34375 22.351562 74.476562 22.160156 74.6875 21.964844 C 74.976562 21.738281 75.292969 21.605469 75.65625 21.550781 C 76.621094 21.484375 77.589844 21.746094 78.453125 22.164062 M 44.140625 74.953125 C 43.90625 74.953125 43.671875 74.957031 43.4375 74.957031 C 43.207031 74.957031 42.972656 74.960938 42.738281 74.964844 C 42.652344 74.964844 42.566406 74.964844 42.480469 74.964844 C 41.816406 74.96875 41.140625 74.988281 40.542969 75.316406 L 40.445312 75.367188 C 40.082031 75.5625 39.796875 75.796875 39.578125 76.152344 C 39.203125 76.851562 38.984375 77.605469 38.777344 78.367188 L 38.730469 78.539062 C 38.65625 78.816406 38.582031 79.089844 38.507812 79.367188 L 38.472656 79.5 C 38.441406 79.621094 38.410156 79.742188 38.390625 79.867188 L 38.441406 79.914062 C 38.589844 79.921875 38.742188 79.925781 38.890625 79.929688 L 39.039062 79.933594 C 39.203125 79.933594 39.367188 79.9375 39.535156 79.941406 L 39.710938 79.945312 C 41.308594 79.972656 42.902344 79.96875 44.5 79.96875 C 44.945312 79.96875 45.390625 79.964844 45.832031 79.964844 C 46.625 79.964844 47.414062 79.964844 48.207031 79.964844 C 48.972656 79.964844 49.738281 79.964844 50.503906 79.964844 L 51.367188 79.964844 C 53.335938 79.964844 55.300781 79.964844 57.269531 79.960938 L 57.175781 79.542969 L 57.152344 79.421875 C 57.09375 79.164062 57.035156 78.910156 56.960938 78.652344 L 56.933594 78.546875 C 56.914062 78.472656 56.890625 78.398438 56.871094 78.324219 C 56.839844 78.214844 56.8125 78.105469 56.78125 77.992188 C 56.542969 77.121094 56.242188 76.320312 55.617188 75.652344 C 55.355469 75.394531 55.136719 75.226562 54.773438 75.128906 C 54.53125 75.074219 54.289062 75.054688 54.042969 75.035156 L 53.890625 75.019531 C 53.308594 74.976562 52.730469 74.972656 52.148438 74.96875 C 52.03125 74.96875 51.910156 74.96875 51.792969 74.964844 C 51.484375 74.964844 51.175781 74.960938 50.867188 74.960938 C 50.558594 74.957031 50.25 74.957031 49.941406 74.953125 C 48.007812 74.9375 46.074219 74.933594 44.140625 74.953125 M 36.347656 83.480469 C 36.257812 83.5625 36.175781 83.652344 36.09375 83.746094 C 35.996094 83.859375 35.882812 83.945312 35.765625 84.03125 C 35.691406 84.09375 35.617188 84.152344 35.542969 84.210938 L 35.398438 84.328125 C 35.152344 84.527344 35.152344 84.527344 34.914062 84.742188 C 34.925781 84.851562 34.925781 84.851562 34.957031 84.964844 L 34.988281 85.085938 L 35.011719 85.175781 C 35.144531 85.214844 35.265625 85.230469 35.402344 85.234375 L 35.519531 85.238281 L 35.652344 85.238281 L 35.796875 85.242188 C 35.957031 85.246094 36.121094 85.25 36.285156 85.25 L 36.460938 85.253906 C 38.433594 85.289062 40.402344 85.28125 42.375 85.28125 C 42.78125 85.28125 43.191406 85.28125 43.601562 85.28125 L 44.140625 85.28125 C 45.257812 85.28125 46.371094 85.28125 47.484375 85.28125 C 48.441406 85.277344 49.394531 85.277344 50.347656 85.28125 C 51.582031 85.28125 52.816406 85.28125 54.050781 85.28125 L 54.226562 85.28125 C 54.636719 85.28125 55.046875 85.28125 55.457031 85.28125 C 55.953125 85.28125 56.453125 85.28125 56.953125 85.28125 C 57.207031 85.28125 57.460938 85.28125 57.714844 85.28125 C 57.945312 85.28125 58.179688 85.28125 58.414062 85.28125 C 58.496094 85.28125 58.578125 85.28125 58.664062 85.28125 C 59.082031 85.28125 59.503906 85.273438 59.925781 85.257812 L 60.035156 85.253906 C 60.152344 85.25 60.152344 85.25 60.3125 85.226562 C 60.410156 85.167969 60.410156 85.167969 60.457031 85.078125 C 60.515625 84.917969 60.515625 84.917969 60.503906 84.742188 C 60.40625 84.601562 60.40625 84.601562 60.257812 84.484375 L 60.179688 84.417969 C 60.09375 84.347656 60.011719 84.277344 59.925781 84.210938 L 59.847656 84.148438 C 59.691406 84.027344 59.535156 83.90625 59.378906 83.789062 C 59.210938 83.660156 59.042969 83.53125 58.875 83.402344 C 58.761719 83.3125 58.644531 83.230469 58.523438 83.148438 C 58.40625 83.140625 58.289062 83.132812 58.171875 83.136719 L 58.0625 83.132812 C 57.9375 83.132812 57.816406 83.132812 57.691406 83.132812 C 57.605469 83.132812 57.515625 83.132812 57.425781 83.132812 C 57.183594 83.128906 56.9375 83.128906 56.691406 83.128906 C 56.484375 83.125 56.273438 83.125 56.0625 83.125 C 55.253906 83.121094 54.441406 83.117188 53.628906 83.113281 C 52.195312 83.109375 50.757812 83.105469 49.320312 83.105469 L 49.222656 83.105469 C 48.179688 83.101562 47.140625 83.097656 46.097656 83.09375 C 44.996094 83.085938 43.894531 83.082031 42.789062 83.082031 C 42.191406 83.082031 41.589844 83.078125 40.988281 83.074219 C 40.476562 83.070312 39.964844 83.070312 39.453125 83.070312 C 39.191406 83.070312 38.929688 83.070312 38.671875 83.066406 C 37.433594 82.996094 37.433594 82.996094 36.347656 83.480469 " fill-opacity="1" fill-rule="nonzero"/><path fill="#545454" d="M 48.371094 7.378906 C 48.480469 7.425781 48.578125 7.476562 48.675781 7.539062 L 48.773438 7.597656 C 49.105469 7.820312 49.316406 8.136719 49.515625 8.476562 C 49.660156 8.777344 49.675781 9.085938 49.664062 9.414062 C 49.648438 9.613281 49.589844 9.785156 49.519531 9.972656 C 49.289062 10.601562 49.375 11.320312 49.425781 11.976562 L 49.4375 12.144531 L 49.449219 12.273438 L 49.632812 12.273438 C 51.257812 12.277344 52.878906 12.285156 54.503906 12.289062 L 54.609375 12.289062 C 55.183594 12.292969 55.757812 12.292969 56.328125 12.296875 C 56.917969 12.296875 57.507812 12.300781 58.097656 12.300781 C 58.425781 12.304688 58.757812 12.304688 59.085938 12.304688 C 59.398438 12.308594 59.710938 12.308594 60.023438 12.308594 C 60.136719 12.308594 60.25 12.308594 60.363281 12.3125 C 62.570312 12.316406 64.476562 12.496094 66.429688 13.605469 C 68.003906 14.546875 69.363281 15.941406 70.257812 17.542969 C 71.382812 19.617188 71.421875 21.675781 71.425781 23.992188 C 71.425781 24.132812 71.429688 24.273438 71.429688 24.414062 C 71.429688 24.917969 71.433594 25.417969 71.433594 25.921875 L 71.433594 26.042969 C 71.4375 27.054688 71.4375 28.066406 71.4375 29.078125 C 71.441406 29.777344 71.441406 30.472656 71.445312 31.171875 C 71.449219 31.894531 71.449219 32.613281 71.449219 33.335938 C 71.449219 33.738281 71.453125 34.140625 71.453125 34.546875 C 71.457031 34.886719 71.457031 35.230469 71.457031 35.574219 C 71.457031 35.75 71.457031 35.921875 71.457031 36.097656 C 71.464844 37.011719 71.351562 37.8125 71.078125 38.683594 L 71.003906 38.933594 C 70.664062 40.046875 70.152344 41.078125 69.460938 42.011719 C 69.394531 42.101562 69.332031 42.1875 69.269531 42.273438 C 68.449219 43.394531 67.328125 44.351562 66.105469 45.007812 C 66.078125 45.023438 66.050781 45.039062 66.019531 45.054688 C 65.53125 45.316406 65.011719 45.496094 64.484375 45.671875 L 64.382812 45.707031 C 63.644531 45.960938 62.929688 46.089844 62.144531 46.117188 L 62.039062 46.121094 C 61.738281 46.128906 61.4375 46.136719 61.136719 46.140625 L 60.984375 46.144531 C 58.8125 46.183594 56.640625 46.195312 54.46875 46.214844 L 54.46875 46.308594 C 54.472656 47.300781 54.46875 48.296875 54.457031 49.289062 C 54.457031 49.519531 54.453125 49.75 54.453125 49.976562 C 54.453125 50.203125 54.449219 50.429688 54.449219 50.65625 C 54.445312 50.742188 54.445312 50.824219 54.445312 50.910156 C 54.441406 51.863281 54.441406 51.863281 54.203125 52.28125 C 53.976562 52.558594 53.742188 52.828125 53.417969 52.992188 C 52.863281 53.097656 52.292969 53.078125 51.730469 53.078125 L 51.445312 53.078125 C 51.1875 53.078125 50.929688 53.078125 50.671875 53.078125 C 50.507812 53.078125 50.347656 53.078125 50.1875 53.078125 C 49.621094 53.078125 49.058594 53.078125 48.496094 53.078125 C 47.96875 53.078125 47.445312 53.078125 46.921875 53.078125 C 46.472656 53.082031 46.019531 53.082031 45.566406 53.082031 C 45.300781 53.082031 45.03125 53.082031 44.761719 53.082031 C 44.507812 53.082031 44.253906 53.082031 44 53.082031 C 43.910156 53.082031 43.816406 53.082031 43.726562 53.082031 C 42.320312 53.085938 42.320312 53.085938 41.972656 52.898438 C 41.859375 52.820312 41.769531 52.734375 41.675781 52.636719 L 41.578125 52.535156 C 41.425781 52.371094 41.296875 52.226562 41.242188 52.007812 C 41.074219 51.109375 41.128906 50.15625 41.117188 49.246094 C 41.117188 49.089844 41.113281 48.9375 41.113281 48.78125 C 41.101562 47.925781 41.09375 47.070312 41.097656 46.214844 L 40.910156 46.214844 C 39.957031 46.21875 39.003906 46.203125 38.054688 46.191406 L 37.921875 46.191406 C 37.257812 46.183594 36.589844 46.171875 35.921875 46.164062 C 31.828125 46.105469 31.828125 46.105469 29.941406 45.199219 L 29.851562 45.15625 C 28.941406 44.71875 28.195312 44.15625 27.492188 43.445312 C 27.402344 43.351562 27.3125 43.261719 27.222656 43.175781 C 26.839844 42.792969 26.503906 42.394531 26.175781 41.964844 C 26.105469 41.875 26.035156 41.789062 25.960938 41.699219 C 25.335938 40.859375 24.925781 39.871094 24.59375 38.882812 L 24.535156 38.71875 C 24.265625 37.894531 24.238281 37.070312 24.230469 36.207031 L 24.226562 35.957031 C 24.222656 35.730469 24.222656 35.5 24.21875 35.273438 C 24.21875 35.125 24.21875 34.980469 24.214844 34.832031 C 24.175781 31.078125 24.171875 27.324219 24.214844 23.570312 C 24.214844 23.457031 24.214844 23.34375 24.21875 23.230469 C 24.238281 21.320312 24.355469 19.667969 25.1875 17.914062 L 25.261719 17.753906 C 25.503906 17.261719 25.800781 16.808594 26.140625 16.378906 L 26.207031 16.292969 C 26.414062 16.035156 26.636719 15.792969 26.867188 15.550781 C 26.972656 15.4375 27.078125 15.320312 27.179688 15.199219 C 27.34375 15.007812 27.527344 14.847656 27.722656 14.6875 L 27.800781 14.617188 C 28.996094 13.605469 30.46875 12.8125 32.015625 12.519531 C 32.992188 12.359375 33.988281 12.363281 34.972656 12.34375 L 35.132812 12.339844 C 36.339844 12.316406 37.546875 12.304688 38.753906 12.296875 C 39.226562 12.292969 39.699219 12.289062 40.171875 12.285156 L 40.53125 12.28125 C 41.886719 12.269531 43.242188 12.257812 44.597656 12.242188 C 45.121094 12.234375 45.644531 12.230469 46.164062 12.222656 C 46.160156 12.011719 46.152344 11.800781 46.148438 11.589844 L 46.140625 11.371094 C 46.125 10.785156 46.085938 10.214844 45.964844 9.640625 C 45.890625 9.273438 45.917969 8.964844 46.015625 8.605469 C 46.132812 8.28125 46.339844 8.027344 46.585938 7.789062 C 47.078125 7.382812 47.75 7.222656 48.371094 7.378906 M 34.527344 15.652344 C 34.257812 15.65625 33.988281 15.65625 33.71875 15.660156 C 33.640625 15.664062 33.5625 15.664062 33.484375 15.664062 C 32.855469 15.671875 32.296875 15.800781 31.714844 16.042969 L 31.613281 16.085938 C 31.023438 16.339844 30.46875 16.675781 29.992188 17.101562 L 29.851562 17.222656 C 28.945312 18.027344 28.199219 19.007812 27.796875 20.164062 C 27.753906 20.300781 27.710938 20.4375 27.671875 20.578125 L 27.648438 20.664062 C 27.550781 21.109375 27.566406 21.589844 27.550781 22.042969 L 27.546875 22.230469 C 27.519531 23.058594 27.511719 23.882812 27.5 24.707031 L 27.5 24.972656 C 27.464844 27.859375 27.46875 30.746094 27.5 33.632812 L 27.503906 33.757812 C 27.511719 34.585938 27.523438 35.417969 27.550781 36.246094 L 27.558594 36.417969 C 27.578125 37.222656 27.578125 37.222656 27.761719 38 L 27.804688 38.128906 C 28.074219 38.882812 28.457031 39.613281 28.976562 40.226562 C 29.023438 40.28125 29.070312 40.339844 29.117188 40.394531 C 29.890625 41.332031 30.847656 42.035156 31.984375 42.460938 C 33.425781 42.984375 35.027344 42.839844 36.539062 42.839844 C 36.808594 42.839844 37.082031 42.839844 37.351562 42.839844 C 37.882812 42.839844 38.414062 42.839844 38.945312 42.839844 C 39.570312 42.839844 40.195312 42.839844 40.816406 42.839844 C 41.96875 42.839844 43.117188 42.839844 44.265625 42.839844 C 45.308594 42.839844 46.347656 42.839844 47.386719 42.839844 C 48.691406 42.839844 49.992188 42.839844 51.292969 42.839844 L 51.484375 42.839844 C 51.914062 42.839844 52.34375 42.839844 52.773438 42.839844 C 55.054688 42.839844 57.339844 42.839844 59.625 42.8125 C 59.753906 42.8125 59.886719 42.8125 60.015625 42.808594 C 62.382812 42.835938 62.382812 42.835938 64.582031 42.0625 C 65.128906 41.738281 65.597656 41.339844 66.058594 40.902344 L 66.15625 40.8125 C 66.976562 40.046875 67.542969 39.015625 67.890625 37.957031 C 68.015625 37.511719 68.042969 37.058594 68.0625 36.597656 L 68.066406 36.457031 C 68.089844 35.953125 68.101562 35.445312 68.113281 34.9375 L 68.113281 34.785156 C 68.136719 33.617188 68.140625 32.449219 68.140625 31.285156 L 68.140625 30.761719 C 68.136719 29.023438 68.128906 27.28125 68.113281 25.539062 L 68.109375 25.210938 C 68.105469 24.601562 68.097656 23.996094 68.089844 23.386719 C 68.085938 23.082031 68.082031 22.773438 68.082031 22.46875 C 68.078125 22.261719 68.078125 22.050781 68.074219 21.84375 C 68.074219 21.746094 68.074219 21.648438 68.074219 21.550781 C 68.070312 20.894531 68.015625 20.363281 67.683594 19.773438 L 67.617188 19.664062 C 67.558594 19.566406 67.503906 19.46875 67.457031 19.363281 C 67.117188 18.652344 66.601562 18.050781 66.058594 17.484375 L 65.972656 17.390625 C 65.238281 16.617188 64.261719 16.132812 63.265625 15.785156 C 63.160156 15.75 63.160156 15.75 63.0625 15.699219 C 62.859375 15.632812 62.667969 15.636719 62.453125 15.640625 L 62.308594 15.640625 C 62.148438 15.640625 61.988281 15.640625 61.832031 15.640625 C 61.714844 15.640625 61.597656 15.640625 61.484375 15.640625 C 61.234375 15.640625 60.980469 15.640625 60.730469 15.640625 C 60.355469 15.640625 59.980469 15.640625 59.609375 15.640625 C 58.980469 15.640625 58.347656 15.640625 57.71875 15.640625 C 57.09375 15.640625 56.472656 15.640625 55.847656 15.640625 L 55.253906 15.640625 C 53.773438 15.640625 52.292969 15.640625 50.808594 15.640625 C 49.414062 15.640625 48.015625 15.644531 46.617188 15.644531 L 45.738281 15.644531 C 44.441406 15.644531 43.144531 15.644531 41.847656 15.644531 C 41.304688 15.644531 40.757812 15.644531 40.210938 15.644531 C 39.507812 15.644531 38.804688 15.644531 38.097656 15.644531 C 37.757812 15.644531 37.421875 15.644531 37.082031 15.644531 C 36.230469 15.644531 35.378906 15.648438 34.527344 15.652344 M 44.523438 48.628906 L 44.523438 49.929688 C 45.203125 49.933594 45.882812 49.933594 46.5625 49.933594 C 46.878906 49.933594 47.195312 49.933594 47.507812 49.933594 C 47.816406 49.933594 48.121094 49.9375 48.425781 49.9375 C 48.542969 49.9375 48.65625 49.9375 48.773438 49.9375 C 49.351562 49.9375 49.929688 49.933594 50.507812 49.914062 L 50.648438 49.910156 L 50.777344 49.902344 L 50.890625 49.898438 C 51.003906 49.882812 51.085938 49.84375 51.1875 49.785156 C 51.179688 49.636719 51.171875 49.492188 51.164062 49.34375 L 51.160156 49.214844 L 51.152344 49.09375 L 51.148438 48.980469 C 51.136719 48.863281 51.113281 48.746094 51.089844 48.628906 Z M 44.523438 48.628906 " fill-opacity="1" fill-rule="nonzero"/><path fill="#545454" d="M 37.753906 49.652344 C 38.035156 49.808594 38.257812 50.003906 38.441406 50.269531 C 38.605469 50.574219 38.703125 50.863281 38.695312 51.207031 C 38.667969 51.449219 38.605469 51.652344 38.488281 51.863281 C 38.324219 52.070312 38.144531 52.253906 37.957031 52.441406 L 37.828125 52.574219 C 37.625 52.785156 37.410156 52.980469 37.191406 53.171875 C 36.402344 53.867188 35.605469 54.601562 34.964844 55.433594 L 34.871094 55.550781 C 33.589844 57.09375 32.828125 59.035156 32.480469 61 C 32.402344 61.476562 32.382812 61.960938 32.351562 62.441406 C 32.347656 62.515625 32.34375 62.59375 32.339844 62.667969 C 32.328125 62.847656 32.320312 63.027344 32.308594 63.207031 C 34.941406 63.203125 37.574219 63.199219 40.207031 63.195312 L 40.324219 63.195312 L 44.125 63.191406 L 44.25 63.191406 C 45.589844 63.1875 46.929688 63.1875 48.269531 63.183594 C 49.84375 63.183594 51.417969 63.179688 52.992188 63.175781 L 53.109375 63.175781 C 53.726562 63.175781 54.339844 63.175781 54.953125 63.175781 C 55.574219 63.171875 56.195312 63.171875 56.816406 63.171875 C 57.152344 63.171875 57.488281 63.171875 57.824219 63.167969 C 59.066406 63.167969 60.3125 63.164062 61.554688 63.136719 L 61.699219 63.136719 C 62.234375 63.125 62.769531 63.105469 63.304688 63.0625 C 63.113281 61.082031 62.863281 59.144531 61.90625 57.367188 L 61.851562 57.269531 C 61.394531 56.410156 60.828125 55.628906 60.167969 54.914062 C 60.082031 54.820312 60 54.722656 59.917969 54.625 C 59.566406 54.222656 59.175781 53.839844 58.769531 53.492188 C 58.636719 53.378906 58.507812 53.261719 58.378906 53.140625 C 58.21875 52.992188 58.054688 52.84375 57.886719 52.703125 C 57.472656 52.335938 57.144531 51.984375 56.914062 51.472656 C 56.855469 51.191406 56.863281 50.933594 56.9375 50.652344 C 57.042969 50.332031 57.234375 50.097656 57.476562 49.871094 C 57.675781 49.710938 57.886719 49.605469 58.140625 49.546875 C 58.503906 49.5 58.789062 49.535156 59.125 49.675781 C 59.332031 49.777344 59.507812 49.910156 59.691406 50.050781 L 59.808594 50.136719 C 60.328125 50.53125 60.835938 50.941406 61.316406 51.382812 C 61.414062 51.46875 61.511719 51.554688 61.613281 51.640625 C 62.324219 52.265625 62.324219 52.265625 62.585938 52.574219 C 62.675781 52.683594 62.773438 52.785156 62.871094 52.886719 C 63.269531 53.304688 63.601562 53.761719 63.933594 54.226562 L 64 54.320312 C 65.515625 56.429688 66.261719 59.015625 66.535156 61.574219 C 66.59375 62.148438 66.621094 62.726562 66.636719 63.304688 L 66.640625 63.457031 C 66.671875 64.753906 66.671875 64.753906 66.429688 65.277344 C 66.359375 65.398438 66.285156 65.511719 66.203125 65.621094 L 66.132812 65.71875 C 65.914062 65.996094 65.609375 66.203125 65.285156 66.347656 C 65.179688 66.363281 65.179688 66.363281 65.058594 66.367188 L 64.917969 66.371094 L 64.757812 66.375 L 64.585938 66.382812 C 63.703125 66.40625 62.816406 66.402344 61.933594 66.402344 C 61.65625 66.402344 61.378906 66.402344 61.105469 66.402344 C 60.566406 66.402344 60.023438 66.402344 59.484375 66.402344 C 59.039062 66.402344 58.59375 66.402344 58.148438 66.402344 L 57.664062 66.402344 C 56.441406 66.402344 55.222656 66.402344 54 66.402344 C 52.972656 66.402344 51.945312 66.402344 50.917969 66.402344 C 46.535156 66.402344 46.535156 66.402344 44.449219 66.398438 L 44.347656 66.398438 C 43.667969 66.398438 42.988281 66.398438 42.308594 66.398438 C 40.925781 66.394531 39.542969 66.394531 38.160156 66.398438 C 37.167969 66.398438 36.175781 66.398438 35.183594 66.394531 C 34.597656 66.394531 34.007812 66.394531 33.417969 66.398438 C 33.023438 66.398438 32.632812 66.398438 32.238281 66.394531 C 32.015625 66.394531 31.789062 66.394531 31.566406 66.394531 C 31.363281 66.398438 31.160156 66.398438 30.957031 66.394531 C 30.882812 66.394531 30.808594 66.394531 30.734375 66.398438 C 30.449219 66.398438 30.191406 66.402344 29.929688 66.265625 C 29.660156 66.074219 29.398438 65.855469 29.21875 65.574219 C 29.003906 65.09375 29.019531 64.550781 29.015625 64.035156 L 29.015625 63.871094 C 29.015625 63.757812 29.015625 63.640625 29.015625 63.527344 C 29.015625 63.355469 29.015625 63.1875 29.015625 63.015625 C 29.011719 62.449219 29.027344 61.890625 29.066406 61.324219 L 29.078125 61.175781 C 29.28125 58.75 30.324219 56.230469 31.679688 54.226562 C 32.066406 53.6875 32.496094 53.179688 32.9375 52.683594 L 33.058594 52.546875 C 33.355469 52.210938 33.660156 51.902344 34 51.609375 C 34.089844 51.527344 34.179688 51.441406 34.265625 51.355469 C 34.441406 51.175781 34.628906 51.011719 34.820312 50.847656 L 34.960938 50.726562 C 36.199219 49.664062 36.199219 49.664062 36.738281 49.523438 C 37.085938 49.46875 37.429688 49.511719 37.753906 49.652344 M 26.566406 53.589844 C 26.933594 53.726562 27.226562 53.929688 27.480469 54.226562 C 27.664062 54.519531 27.777344 54.800781 27.792969 55.148438 C 27.789062 55.375 27.765625 55.535156 27.65625 55.734375 C 27.503906 55.953125 27.320312 56.140625 27.125 56.324219 C 27.035156 56.414062 26.945312 56.507812 26.863281 56.609375 C 26.617188 56.890625 26.347656 57.152344 26.078125 57.417969 C 25.980469 57.515625 25.882812 57.613281 25.785156 57.710938 C 25.542969 57.953125 25.300781 58.195312 25.058594 58.4375 C 24.851562 58.640625 24.644531 58.847656 24.441406 59.050781 C 24.34375 59.148438 24.25 59.242188 24.152344 59.339844 C 23.808594 59.679688 23.472656 60.019531 23.183594 60.410156 L 23.285156 60.519531 L 23.425781 60.671875 C 23.449219 60.695312 23.472656 60.722656 23.5 60.75 C 23.667969 60.9375 23.835938 61.125 23.996094 61.316406 C 24.089844 61.410156 24.183594 61.496094 24.285156 61.582031 C 24.484375 61.753906 24.660156 61.941406 24.839844 62.132812 C 25.171875 62.492188 25.511719 62.835938 25.859375 63.179688 C 26.148438 63.464844 26.429688 63.761719 26.675781 64.085938 L 26.742188 64.175781 C 26.851562 64.34375 26.898438 64.480469 26.917969 64.675781 C 26.921875 65.007812 26.917969 65.304688 26.773438 65.609375 C 26.597656 65.898438 26.394531 66.128906 26.09375 66.296875 C 25.789062 66.429688 25.476562 66.496094 25.144531 66.488281 C 24.925781 66.457031 24.777344 66.371094 24.605469 66.242188 C 24.320312 65.996094 24.050781 65.738281 23.777344 65.480469 C 23.628906 65.339844 23.472656 65.199219 23.320312 65.058594 C 22.917969 64.695312 22.539062 64.308594 22.15625 63.925781 L 21.921875 63.691406 C 21.757812 63.527344 21.59375 63.363281 21.429688 63.199219 C 21.21875 62.988281 21.007812 62.777344 20.796875 62.566406 C 20.632812 62.40625 20.472656 62.242188 20.308594 62.078125 L 20.078125 61.847656 C 19.96875 61.738281 19.859375 61.628906 19.753906 61.523438 L 19.65625 61.425781 C 19.300781 61.070312 19.300781 61.070312 19.234375 60.878906 C 19.164062 60.546875 19.128906 60.203125 19.230469 59.871094 C 19.464844 59.347656 20.042969 58.933594 20.46875 58.558594 C 20.65625 58.394531 20.828125 58.222656 20.992188 58.027344 C 21.105469 57.890625 21.234375 57.777344 21.367188 57.664062 C 21.601562 57.453125 21.816406 57.230469 22.023438 56.996094 C 22.230469 56.761719 22.453125 56.542969 22.691406 56.339844 C 22.910156 56.15625 23.09375 55.941406 23.285156 55.726562 C 23.417969 55.585938 23.5625 55.460938 23.707031 55.332031 C 23.886719 55.175781 24.054688 55.003906 24.222656 54.832031 C 24.476562 54.570312 24.738281 54.320312 25.019531 54.082031 L 25.160156 53.957031 L 25.289062 53.851562 L 25.417969 53.742188 C 25.761719 53.5 26.171875 53.488281 26.566406 53.589844 M 69.851562 53.628906 C 70.390625 53.863281 70.824219 54.402344 71.230469 54.816406 C 71.316406 54.898438 71.40625 54.980469 71.5 55.058594 C 71.707031 55.242188 71.90625 55.433594 72.101562 55.632812 L 72.210938 55.742188 C 72.363281 55.894531 72.515625 56.050781 72.667969 56.203125 C 72.777344 56.316406 72.890625 56.429688 73.003906 56.542969 L 73.105469 56.644531 C 73.292969 56.835938 73.492188 57.019531 73.699219 57.195312 C 73.824219 57.308594 73.933594 57.433594 74.046875 57.558594 C 74.222656 57.753906 74.402344 57.9375 74.605469 58.105469 C 74.886719 58.351562 75.140625 58.625 75.382812 58.90625 C 75.488281 59.023438 75.601562 59.132812 75.714844 59.242188 C 76 59.523438 76.257812 59.832031 76.390625 60.214844 C 76.410156 60.464844 76.390625 60.648438 76.296875 60.886719 C 76.207031 61.0625 76.074219 61.195312 75.933594 61.335938 C 75.878906 61.390625 75.824219 61.449219 75.769531 61.503906 L 75.679688 61.597656 C 75.578125 61.703125 75.476562 61.808594 75.378906 61.917969 C 75.035156 62.292969 74.683594 62.652344 74.324219 63.011719 L 74.136719 63.199219 C 74.007812 63.328125 73.878906 63.457031 73.75 63.585938 C 73.585938 63.75 73.421875 63.914062 73.257812 64.078125 C 73.128906 64.207031 73 64.335938 72.875 64.460938 L 72.691406 64.644531 C 72.121094 65.214844 72.121094 65.214844 71.832031 65.460938 C 71.753906 65.527344 71.683594 65.59375 71.609375 65.660156 C 70.890625 66.34375 70.890625 66.34375 70.449219 66.492188 C 70.199219 66.523438 69.964844 66.523438 69.71875 66.441406 C 69.371094 66.28125 69.097656 66.070312 68.859375 65.765625 C 68.722656 65.574219 68.671875 65.398438 68.644531 65.164062 C 68.628906 64.859375 68.648438 64.59375 68.773438 64.3125 C 68.953125 64 69.191406 63.75 69.445312 63.496094 C 69.550781 63.382812 69.65625 63.265625 69.757812 63.152344 C 70.160156 62.707031 70.59375 62.289062 71.019531 61.867188 C 71.1875 61.703125 71.355469 61.535156 71.519531 61.367188 L 71.636719 61.253906 C 72.0625 60.847656 72.0625 60.847656 72.382812 60.359375 C 72.007812 59.945312 71.621094 59.542969 71.222656 59.148438 C 71.121094 59.046875 71.019531 58.945312 70.917969 58.84375 C 70.703125 58.628906 70.484375 58.414062 70.269531 58.199219 C 70.019531 57.949219 69.765625 57.699219 69.515625 57.449219 C 69.414062 57.347656 69.316406 57.25 69.214844 57.148438 C 68.925781 56.859375 68.636719 56.570312 68.375 56.257812 L 68.25 56.113281 C 67.867188 55.65625 67.867188 55.65625 67.796875 55.386719 C 67.761719 55.097656 67.773438 54.832031 67.871094 54.554688 C 67.984375 54.3125 68.121094 54.113281 68.328125 53.9375 C 68.808594 53.625 69.277344 53.492188 69.851562 53.628906 M 39.761719 24.199219 C 40.394531 24.527344 40.941406 25.085938 41.335938 25.675781 C 41.753906 26.375 41.8125 27.097656 41.828125 27.898438 C 41.820312 28.507812 41.648438 29.027344 41.355469 29.554688 C 41.164062 29.863281 40.914062 30.121094 40.660156 30.378906 L 40.554688 30.488281 C 40.109375 30.910156 39.511719 31.21875 38.921875 31.390625 C 38.148438 31.519531 37.265625 31.5 36.523438 31.238281 C 35.816406 30.941406 35.289062 30.460938 34.816406 29.867188 C 34.414062 29.339844 34.1875 28.765625 34.09375 28.109375 C 34.050781 27.324219 34.183594 26.628906 34.53125 25.925781 C 34.84375 25.320312 35.269531 24.785156 35.824219 24.390625 C 36.964844 23.675781 38.542969 23.65625 39.761719 24.199219 M 59.394531 24.253906 C 60.035156 24.648438 60.558594 25.140625 60.9375 25.789062 C 61.277344 26.417969 61.445312 27.0625 61.441406 27.777344 C 61.421875 28.421875 61.222656 29.066406 60.894531 29.617188 C 60.503906 30.21875 60.007812 30.691406 59.371094 31.023438 C 58.582031 31.417969 58.582031 31.417969 58.140625 31.441406 L 58.03125 31.445312 C 57.226562 31.476562 56.546875 31.382812 55.824219 31.015625 C 55.183594 30.675781 54.671875 30.195312 54.28125 29.582031 C 53.972656 29.0625 53.796875 28.542969 53.785156 27.933594 C 53.777344 27.109375 53.832031 26.46875 54.222656 25.738281 C 54.347656 25.523438 54.496094 25.34375 54.664062 25.164062 L 54.789062 25.027344 C 55.265625 24.527344 55.789062 24.175781 56.449219 23.957031 C 57.425781 23.691406 58.5 23.777344 59.394531 24.253906 M 46.359375 35.34375 C 46.539062 35.34375 46.71875 35.34375 46.894531 35.34375 C 47.195312 35.34375 47.496094 35.34375 47.792969 35.34375 C 48.136719 35.34375 48.480469 35.34375 48.824219 35.34375 C 49.121094 35.34375 49.421875 35.34375 49.71875 35.34375 C 49.898438 35.34375 50.074219 35.34375 50.25 35.34375 C 51.503906 35.34375 51.503906 35.34375 52.035156 35.371094 L 52.136719 35.378906 C 52.4375 35.394531 52.675781 35.445312 52.929688 35.609375 C 53.183594 35.804688 53.3125 36.039062 53.449219 36.328125 C 53.546875 36.5625 53.582031 36.785156 53.550781 37.039062 C 53.46875 37.367188 53.3125 37.621094 53.078125 37.863281 C 52.90625 38.015625 52.757812 38.121094 52.539062 38.199219 C 52.007812 38.296875 51.472656 38.316406 50.933594 38.324219 L 50.816406 38.328125 C 49.765625 38.351562 48.714844 38.351562 47.664062 38.351562 C 47.386719 38.351562 47.109375 38.351562 46.832031 38.351562 C 44.875 38.351562 44.875 38.351562 44.117188 38.324219 L 43.976562 38.320312 C 43.5625 38.300781 43.140625 38.273438 42.765625 38.070312 C 42.542969 37.921875 42.382812 37.761719 42.253906 37.523438 C 42.136719 37.25 42.082031 36.976562 42.09375 36.683594 C 42.132812 36.375 42.242188 36.085938 42.429688 35.839844 C 42.609375 35.652344 42.828125 35.527344 43.074219 35.445312 C 43.429688 35.398438 43.78125 35.382812 44.140625 35.371094 L 44.324219 35.367188 C 45.003906 35.34375 45.679688 35.34375 46.359375 35.34375 M 36.96875 18.046875 C 37.214844 18.195312 37.386719 18.410156 37.539062 18.648438 C 37.675781 18.910156 37.699219 19.160156 37.691406 19.453125 C 37.65625 19.699219 37.566406 19.890625 37.425781 20.09375 C 37.265625 20.277344 37.101562 20.441406 36.871094 20.523438 L 36.738281 20.558594 L 36.609375 20.59375 C 36.242188 20.671875 35.878906 20.683594 35.507812 20.695312 L 35.175781 20.707031 C 35 20.710938 34.828125 20.71875 34.65625 20.722656 C 34.488281 20.730469 34.320312 20.734375 34.152344 20.742188 L 33.996094 20.746094 C 33.609375 20.757812 33.214844 20.777344 32.859375 20.949219 C 32.738281 21.050781 32.738281 21.050781 32.6875 21.175781 C 32.628906 21.414062 32.625 21.640625 32.621094 21.882812 L 32.609375 22.203125 C 32.605469 22.367188 32.601562 22.535156 32.597656 22.699219 C 32.558594 24.144531 32.558594 24.144531 32.28125 24.625 C 32.109375 24.859375 31.886719 25.023438 31.632812 25.164062 C 31.328125 25.285156 31.039062 25.289062 30.714844 25.257812 C 30.480469 25.210938 30.304688 25.125 30.121094 24.972656 C 29.984375 24.835938 29.875 24.703125 29.800781 24.519531 C 29.773438 24.394531 29.761719 24.277344 29.75 24.148438 L 29.738281 24.019531 C 29.691406 23.492188 29.691406 22.960938 29.691406 22.433594 C 29.691406 22.273438 29.691406 22.113281 29.691406 21.953125 C 29.6875 20.363281 29.6875 20.363281 30.039062 19.707031 C 30.371094 19.136719 30.773438 18.648438 31.34375 18.308594 C 32.03125 17.921875 32.65625 17.871094 33.429688 17.84375 L 33.609375 17.839844 C 36.273438 17.75 36.273438 17.75 36.96875 18.046875 " fill-opacity="1" fill-rule="nonzero"/><path fill="#545454" d="M 53.359375 55.046875 C 53.933594 55.046875 54.507812 55.042969 55.078125 55.042969 L 55.34375 55.042969 C 55.597656 55.042969 55.851562 55.042969 56.109375 55.042969 C 56.1875 55.042969 56.261719 55.042969 56.339844 55.042969 C 57.890625 55.039062 57.890625 55.039062 58.285156 55.242188 C 58.5 55.367188 58.667969 55.511719 58.808594 55.71875 C 58.9375 55.945312 59.003906 56.15625 59.011719 56.417969 C 58.996094 56.742188 58.894531 57 58.71875 57.269531 C 58.613281 57.398438 58.570312 57.445312 58.429688 57.511719 C 58.085938 57.621094 57.734375 57.664062 57.375 57.683594 L 57.265625 57.691406 C 56.707031 57.714844 56.144531 57.710938 55.585938 57.710938 L 55.214844 57.714844 C 54.953125 57.714844 54.695312 57.714844 54.4375 57.714844 C 54.140625 57.714844 53.84375 57.714844 53.546875 57.714844 C 53.257812 57.714844 52.96875 57.714844 52.679688 57.714844 C 52.558594 57.714844 52.4375 57.714844 52.316406 57.714844 C 51.757812 57.71875 51.203125 57.714844 50.644531 57.664062 L 50.53125 57.65625 C 50.28125 57.628906 50.066406 57.566406 49.835938 57.464844 C 49.640625 57.273438 49.5 57.003906 49.421875 56.742188 C 49.367188 56.472656 49.359375 56.191406 49.441406 55.929688 C 49.546875 55.699219 49.671875 55.503906 49.878906 55.355469 C 50.144531 55.183594 50.417969 55.097656 50.734375 55.078125 C 51.023438 55.0625 51.3125 55.0625 51.601562 55.0625 C 51.710938 55.058594 51.824219 55.058594 51.933594 55.058594 C 52.292969 55.054688 52.648438 55.050781 53.003906 55.050781 Z M 38.875 58.996094 L 39.09375 58.992188 C 39.757812 58.988281 40.421875 58.984375 41.085938 58.980469 C 41.578125 58.980469 42.066406 58.976562 42.558594 58.972656 C 42.902344 58.96875 43.25 58.964844 43.59375 58.964844 C 43.800781 58.964844 44.007812 58.964844 44.214844 58.960938 C 44.40625 58.957031 44.601562 58.957031 44.796875 58.957031 C 44.867188 58.957031 44.9375 58.957031 45.007812 58.957031 C 45.222656 58.949219 45.425781 58.957031 45.632812 59.007812 C 45.921875 59.203125 46.109375 59.472656 46.269531 59.777344 C 46.382812 60.046875 46.386719 60.316406 46.359375 60.601562 C 46.296875 60.863281 46.191406 61.074219 46.011719 61.273438 C 45.863281 61.40625 45.722656 61.492188 45.527344 61.539062 C 44.792969 61.683594 44 61.625 43.253906 61.625 L 43.058594 61.625 C 42.714844 61.625 42.375 61.625 42.03125 61.625 C 41.714844 61.625 41.398438 61.625 41.082031 61.625 C 40.808594 61.625 40.535156 61.625 40.257812 61.625 C 40.097656 61.625 39.933594 61.625 39.769531 61.628906 C 37.820312 61.632812 37.820312 61.632812 37.367188 61.394531 C 37.144531 61.21875 37.027344 60.980469 36.925781 60.726562 C 36.871094 60.40625 36.859375 60.128906 36.972656 59.820312 C 37.074219 59.597656 37.191406 59.410156 37.378906 59.25 C 37.820312 58.949219 38.359375 59 38.875 58.996094 M 42.460938 55.042969 C 42.558594 55.042969 42.65625 55.042969 42.753906 55.042969 C 43.359375 55.042969 43.960938 55.042969 44.566406 55.070312 L 44.683594 55.074219 C 45.089844 55.097656 45.480469 55.148438 45.851562 55.320312 C 46.082031 55.539062 46.257812 55.808594 46.359375 56.109375 C 46.386719 56.332031 46.386719 56.550781 46.320312 56.765625 C 46.15625 57.152344 45.898438 57.390625 45.585938 57.65625 L 45.539062 57.703125 C 45.4375 57.710938 45.339844 57.710938 45.242188 57.714844 L 45.144531 57.714844 C 45.039062 57.714844 44.933594 57.71875 44.828125 57.71875 L 44.601562 57.71875 C 43.90625 57.726562 43.214844 57.730469 42.519531 57.734375 C 42.007812 57.734375 41.496094 57.738281 40.984375 57.746094 C 40.625 57.75 40.265625 57.75 39.902344 57.75 C 39.6875 57.753906 39.472656 57.753906 39.257812 57.757812 C 39.054688 57.761719 38.851562 57.761719 38.652344 57.761719 C 38.578125 57.761719 38.503906 57.761719 38.429688 57.761719 C 38.199219 57.769531 37.988281 57.761719 37.765625 57.703125 C 37.472656 57.515625 37.257812 57.28125 37.078125 56.988281 C 36.980469 56.757812 36.960938 56.546875 36.972656 56.300781 C 37.011719 56.023438 37.101562 55.796875 37.261719 55.566406 C 37.386719 55.414062 37.503906 55.300781 37.671875 55.195312 C 37.984375 55.082031 38.304688 55.085938 38.632812 55.082031 L 38.796875 55.078125 C 38.972656 55.074219 39.152344 55.074219 39.328125 55.070312 L 39.511719 55.066406 C 40.496094 55.050781 41.476562 55.042969 42.460938 55.042969 M 53.378906 58.953125 L 53.484375 58.953125 C 54.835938 58.949219 54.835938 58.949219 55.242188 59.152344 C 55.503906 59.316406 55.722656 59.5 55.871094 59.769531 C 55.972656 60.007812 56.027344 60.253906 56.007812 60.515625 C 55.957031 60.765625 55.832031 60.980469 55.675781 61.179688 C 55.484375 61.378906 55.304688 61.464844 55.046875 61.539062 C 54.296875 61.6875 53.492188 61.640625 52.730469 61.648438 C 52.480469 61.652344 52.230469 61.65625 51.976562 61.660156 C 51.734375 61.667969 51.488281 61.671875 51.246094 61.671875 C 51.152344 61.671875 51.058594 61.675781 50.964844 61.679688 C 50.386719 61.695312 50.386719 61.695312 50.125 61.617188 C 49.875 61.476562 49.703125 61.269531 49.546875 61.035156 C 49.40625 60.765625 49.375 60.535156 49.382812 60.230469 C 49.410156 59.976562 49.46875 59.761719 49.59375 59.539062 C 49.734375 59.367188 49.886719 59.246094 50.089844 59.148438 C 50.414062 59.035156 50.75 59.003906 51.09375 58.992188 L 51.191406 58.988281 C 51.296875 58.988281 51.402344 58.984375 51.507812 58.980469 L 51.621094 58.976562 C 52.207031 58.960938 52.792969 58.953125 53.378906 58.953125 " fill-opacity="1" fill-rule="nonzero"/><path fill="#434343" d="M 57.222656 79.722656 L 57.316406 79.722656 L 57.316406 80.011719 C 54.941406 80.011719 52.566406 80.011719 50.191406 80.011719 L 50.039062 80.011719 C 49.234375 80.011719 48.425781 80.015625 47.617188 80.015625 C 46.789062 80.015625 45.957031 80.015625 45.125 80.015625 C 44.660156 80.015625 44.195312 80.015625 43.730469 80.015625 C 39.953125 80.019531 39.953125 80.019531 38.296875 79.960938 L 38.390625 79.769531 L 38.441406 79.867188 C 40.460938 79.910156 42.480469 79.921875 44.5 79.929688 C 44.945312 79.929688 45.390625 79.929688 45.832031 79.933594 C 46.625 79.933594 47.414062 79.9375 48.207031 79.9375 C 48.972656 79.941406 49.738281 79.941406 50.503906 79.945312 L 51.367188 79.945312 C 53.335938 79.953125 55.300781 79.957031 57.269531 79.960938 Z M 57.222656 79.722656 " fill-opacity="1" fill-rule="nonzero"/><path fill="#434343" d="M 38.34375 79.769531 L 38.441406 79.867188 C 38.535156 79.882812 38.535156 79.882812 38.648438 79.878906 L 38.78125 79.882812 L 38.925781 79.882812 L 39.078125 79.886719 C 39.25 79.890625 39.417969 79.890625 39.585938 79.894531 C 39.707031 79.894531 39.828125 79.898438 39.945312 79.898438 C 40.328125 79.90625 40.710938 79.910156 41.097656 79.914062 L 41.285156 79.917969 C 42.15625 79.925781 43.027344 79.933594 43.898438 79.941406 C 44.1875 79.941406 44.480469 79.945312 44.769531 79.945312 C 45.429688 79.953125 46.085938 79.957031 46.746094 79.960938 L 46.746094 80.011719 C 45.949219 80.011719 45.15625 80.011719 44.359375 80.011719 C 43.988281 80.011719 43.621094 80.011719 43.25 80.015625 C 41.597656 80.015625 39.949219 80.015625 38.296875 79.960938 Z M 38.34375 79.769531 " fill-opacity="1" fill-rule="nonzero"/><path fill="#c9c9c9" d="M 34.964844 84.597656 L 35.0625 84.644531 L 34.964844 84.742188 L 35.011719 85.175781 L 37.957031 85.226562 L 37.957031 85.273438 L 34.191406 85.273438 L 34.191406 85.175781 C 34.253906 85.132812 34.320312 85.089844 34.382812 85.046875 C 34.585938 84.910156 34.773438 84.75 34.964844 84.597656 " fill-opacity="1" fill-rule="nonzero"/><path fill="#dddddd" d="M 60.214844 84.453125 C 60.363281 84.519531 60.46875 84.597656 60.589844 84.707031 C 60.753906 84.855469 60.925781 84.988281 61.109375 85.117188 L 61.179688 85.175781 L 61.179688 85.273438 L 59.441406 85.273438 L 59.441406 85.226562 L 60.410156 85.175781 L 60.457031 84.742188 C 60.347656 84.570312 60.347656 84.570312 60.214844 84.453125 " fill-opacity="1" fill-rule="nonzero"/><path fill="#434343" d="M 28.058594 14.394531 L 28.15625 14.445312 L 26.464844 16.132812 L 26.371094 16.085938 L 26.496094 15.953125 L 26.75 15.679688 C 26.898438 15.519531 27.042969 15.359375 27.183594 15.195312 C 27.34375 15.007812 27.53125 14.847656 27.722656 14.6875 C 27.785156 14.628906 27.851562 14.574219 27.914062 14.519531 Z M 15.84375 22.992188 L 15.941406 23.039062 L 14.832031 24.148438 L 14.734375 24.101562 C 15.070312 23.699219 15.429688 23.308594 15.84375 22.992188 " fill-opacity="1" fill-rule="nonzero"/><path fill="#787878" d="M 38.34375 79.769531 L 38.441406 79.867188 C 38.558594 79.882812 38.558594 79.882812 38.695312 79.882812 L 38.855469 79.882812 L 39.03125 79.886719 L 39.207031 79.886719 C 39.398438 79.890625 39.585938 79.894531 39.773438 79.894531 L 40.15625 79.902344 C 40.46875 79.90625 40.78125 79.910156 41.097656 79.914062 L 41.097656 79.960938 L 38.296875 79.960938 Z M 38.34375 79.769531 " fill-opacity="1" fill-rule="nonzero"/><path fill="#434343" d="M 31.101562 18.453125 L 31.199219 18.453125 C 31.132812 18.605469 31.050781 18.707031 30.933594 18.824219 L 30.835938 18.917969 L 30.734375 19.019531 L 30.628906 19.121094 C 30.546875 19.203125 30.460938 19.285156 30.378906 19.371094 L 30.28125 19.320312 C 30.785156 18.671875 30.785156 18.671875 31.101562 18.453125 M 35.6875 24.488281 L 35.785156 24.535156 C 35.527344 24.839844 35.25 25.125 34.964844 25.40625 L 34.867188 25.355469 C 34.949219 25.257812 35.03125 25.15625 35.113281 25.058594 L 35.183594 24.972656 C 35.339844 24.789062 35.5 24.636719 35.6875 24.488281 M 55.195312 24.632812 L 55.289062 24.632812 C 55.210938 24.839844 55.058594 24.972656 54.902344 25.125 L 54.824219 25.207031 C 54.757812 25.277344 54.6875 25.339844 54.613281 25.40625 L 54.519531 25.40625 C 54.597656 25.199219 54.75 25.0625 54.902344 24.910156 L 54.984375 24.828125 C 55.050781 24.761719 55.121094 24.695312 55.195312 24.632812 M 29.703125 83.390625 L 29.796875 83.4375 L 29.542969 83.71875 L 29.46875 83.800781 C 29.355469 83.921875 29.242188 84.046875 29.121094 84.164062 L 29.027344 84.113281 C 29.109375 84.019531 29.195312 83.925781 29.28125 83.832031 L 29.355469 83.753906 C 29.46875 83.628906 29.582031 83.507812 29.703125 83.390625 M 74.941406 21.785156 L 75.039062 21.832031 L 74.457031 22.410156 L 74.363281 22.363281 C 74.542969 22.148438 74.714844 21.949219 74.941406 21.785156 M 57.558594 49.785156 L 57.65625 49.785156 C 57.582031 49.964844 57.472656 50.074219 57.335938 50.207031 L 57.214844 50.324219 L 57.125 50.414062 L 57.125 50.269531 C 57.195312 50.175781 57.195312 50.175781 57.289062 50.074219 L 57.378906 49.972656 C 57.4375 49.910156 57.5 49.847656 57.558594 49.785156 M 46.648438 7.734375 L 46.746094 7.734375 C 46.667969 7.917969 46.554688 8.035156 46.40625 8.167969 L 46.308594 8.167969 C 46.386719 7.984375 46.5 7.867188 46.648438 7.734375 M 49.882812 55.339844 L 49.980469 55.339844 C 49.910156 55.5 49.824219 55.609375 49.691406 55.726562 L 49.59375 55.726562 C 49.664062 55.5625 49.75 55.453125 49.882812 55.339844 M 37.378906 59.25 L 37.476562 59.25 C 37.40625 59.410156 37.3125 59.515625 37.183594 59.636719 L 37.089844 59.585938 C 37.132812 59.53125 37.179688 59.472656 37.226562 59.417969 L 37.304688 59.324219 Z M 49.835938 59.296875 L 49.929688 59.296875 C 49.871094 59.4375 49.808594 59.539062 49.691406 59.636719 L 49.59375 59.636719 C 49.65625 59.496094 49.71875 59.394531 49.835938 59.296875 M 42.59375 35.6875 L 42.6875 35.738281 L 42.449219 36.027344 L 42.351562 35.976562 Z M 42.59375 35.6875 " fill-opacity="1" fill-rule="nonzero"/><path fill="#787878" d="M 38.34375 79.769531 L 38.535156 79.960938 L 38.296875 79.960938 Z M 38.34375 79.769531 " fill-opacity="1" fill-rule="nonzero"/></svg>